# xmcd
#
# Track frame offsets:
#	150
#	19678
#	38180
#	57379
#	74493
#	99566
#	118974
#	143669
#	161343
#	180214
#	206526
#	230881
#
# Disc length: 3397 seconds
#
# Revision: 0
# Processed by: cddbd v1.5.2PL0 Copyright (c) Steve Scherf et al.
# Submitted via: audiograbber 1.83.01
#
DISCID=a60d430c
DTITLE=Stubborn - Recycled new improved
DYEAR=2009
DGENRE=Death Metal
TTITLE0=The soul collector
TTITLE1=Homicide
TTITLE2=War (has been declared)
TTITLE3=Mindless
TTITLE4=Unsane
TTITLE5=Hometown
TTITLE6=Omega red
TTITLE7=Kingsize
TTITLE8=A lesson in humility
TTITLE9=Rules of the game
TTITLE10=Recycled new improved
TTITLE11=Crushing the master
EXTD=
EXTT0=
EXTT1=
EXTT2=
EXTT3=
EXTT4=
EXTT5=
EXTT6=
EXTT7=
EXTT8=
EXTT9=
EXTT10=
EXTT11=
PLAYORDER=
